HIERARCHY
ROOT Pelvis
{
	OFFSET -0.217368 -24.078917 2.858379
	CHANNELS 6 Xposition Yposition Zposition Zrotation Yrotation Xrotation 
	JOINT Left_hip
	{
		OFFSET 5.858135 -8.228005 -1.766408
		CHANNELS 3 Zrotation Yrotation Xrotation
		JOINT Left_knee
		{
			OFFSET 4.345143 -38.646942 0.803700
			CHANNELS 3 Zrotation Yrotation Xrotation
			JOINT Left_ankle
			{
				OFFSET -1.479033 -42.687447 -3.742800
				CHANNELS 3 Zrotation Yrotation Xrotation
				JOINT Left_foot
				{
					OFFSET 4.105436 -6.028605 12.204244
					CHANNELS 3 Zrotation Yrotation Xrotation
					End Site
					{
						OFFSET 0.000000 0.000000 0.000000
					}
				}
			}
		}
	}
	JOINT Right_hip
	{
		OFFSET -6.030973 -9.051328 -1.354253
		CHANNELS 3 Zrotation Yrotation Xrotation
		JOINT Right_knee
		{
			OFFSET -4.325663 -38.368790 -0.484304
			CHANNELS 3 Zrotation Yrotation Xrotation
			JOINT Right_ankle
			{
				OFFSET 1.905555 -42.004566 -3.456167
				CHANNELS 3 Zrotation Yrotation Xrotation
				JOINT Right_foot
				{
					OFFSET -3.483987 -6.210554 13.032330
					CHANNELS 3 Zrotation Yrotation Xrotation
					End Site
					{
						OFFSET 0.000000 0.000000 0.000000
					}
				}
			}
		}
	}
	JOINT Spine1
	{
		OFFSET 0.443945 12.440353 -3.838522
		CHANNELS 3 Zrotation Yrotation Xrotation
		JOINT Spine2
		{
			OFFSET 0.448844 13.795640 2.682033
			CHANNELS 3 Zrotation Yrotation Xrotation
			JOINT Spine3
			{
				OFFSET -0.226460 5.603239 0.285504
				CHANNELS 3 Zrotation Yrotation Xrotation
				JOINT Neck
				{
					OFFSET -1.339018 21.163553 -3.346758
					CHANNELS 3 Zrotation Yrotation Xrotation
					JOINT Head
					{
						OFFSET 1.011321 8.893734 5.040987
						CHANNELS 3 Zrotation Yrotation Xrotation
						End Site
						{
							OFFSET 0.000000 0.000000 0.000000
						}
					}
				}
				JOINT Left_collar
				{
					OFFSET 7.170247 11.399971 -1.889817
					CHANNELS 3 Zrotation Yrotation Xrotation
					JOINT Left_shoulder
					{
						OFFSET 12.292140 4.520507 -1.904600
						CHANNELS 3 Zrotation Yrotation Xrotation
						JOINT Left_elbow
						{
							OFFSET 25.533188 -1.564902 -2.294648
							CHANNELS 3 Zrotation Yrotation Xrotation
							JOINT Left_wrist
							{
								OFFSET 26.570929 1.269810 -0.737473
								CHANNELS 3 Zrotation Yrotation Xrotation
								JOINT Left_palm
								{
									OFFSET 8.669054 -1.063602 -1.559429
									CHANNELS 3 Zrotation Yrotation Xrotation
									End Site
									{
										OFFSET 0.000000 0.000000 0.000000
									}
								}
							}
						}
					}
				}
				JOINT Right_collar
				{
					OFFSET -8.295364 11.247234 -2.370738
					CHANNELS 3 Zrotation Yrotation Xrotation
					JOINT Right_shoulder
					{
						OFFSET -11.322830 4.685326 -0.847207
						CHANNELS 3 Zrotation Yrotation Xrotation
						JOINT Right_elbow
						{
							OFFSET -26.012751 -1.436928 -3.126872
							CHANNELS 3 Zrotation Yrotation Xrotation
							JOINT Right_wrist
							{
								OFFSET -26.910841 0.679372 -0.602677
								CHANNELS 3 Zrotation Yrotation Xrotation
								JOINT Right_palm
								{
									OFFSET -8.875370 -0.865157 -1.010708
									CHANNELS 3 Zrotation Yrotation Xrotation
									End Site
									{
										OFFSET 0.000000 0.000000 0.000000
									}
								}
							}
						}
					}
				}
			}
		}
	}
}
MOTION
Frames: 8
Frame Time: 0.016667
-0.217368 66.522339 2.858379 -5.517742 8.394165 -5.442342 14.742672 0.046799 -5.928213 -5.480138 1.078603 31.652544 4.635849 8.390088 -4.894181 0.000000 0.000000 0.000000 -9.532104 0.458145 -14.334823 8.318124 -1.912692 29.038553 -11.066512 -25.277980 10.040820 0.000000 0.000000 0.000000 -0.642297 -0.292846 8.479414 -6.658325 2.637841 -13.587787 -4.318612 9.888496 16.931189 18.484209 -10.450888 -13.818479 0.000000 0.000000 0.000000 -10.423102 -16.694327 6.428956 -35.680797 -21.009938 1.891141 27.674152 -71.624846 -17.024402 0.000000 0.000000 0.000000 0.000000 0.000000 0.000000 18.059020 15.017480 6.210181 26.761592 29.419700 3.310941 -30.351217 43.816230 -10.387052 0.000000 0.000000 0.000000 0.000000 0.000000 0.000000 
-0.910847 66.333771 2.957019 -5.527689 8.196194 -5.832239 14.770256 0.060561 -6.262930 -6.011630 1.293474 31.615561 6.267023 11.406797 -8.144494 0.000000 0.000000 0.000000 -10.427391 0.358688 -13.455368 9.784526 -2.492039 29.576904 -11.474157 -26.024676 9.837863 0.000000 0.000000 0.000000 -0.588487 -0.280088 7.998692 -7.437887 2.957891 -12.437254 -3.389077 10.599836 16.660518 20.592783 -11.568365 -14.530483 0.000000 0.000000 0.000000 -12.083483 -17.879277 7.116526 -31.857153 -18.193994 0.869969 29.055021 -67.603162 -16.742383 0.000000 0.000000 0.000000 0.000000 0.000000 0.000000 14.555584 16.048074 6.524837 21.380166 29.171203 2.268029 -29.887263 42.142977 -9.743430 0.000000 0.000000 0.000000 0.000000 0.000000 0.000000 
-1.922754 66.726837 3.387324 -5.508436 6.425178 -5.074544 15.216863 0.006124 -4.499239 -6.084294 1.252123 28.436786 6.828156 12.718525 -8.457788 0.000000 0.000000 0.000000 -9.956108 0.394199 -12.751459 9.932530 -2.440592 27.579782 -10.520826 -24.601916 6.850531 0.000000 0.000000 0.000000 -0.053146 -0.271868 6.759880 -6.846611 2.756983 -12.253356 -2.425877 13.562996 17.709048 20.977417 -12.083706 -13.685168 0.000000 0.000000 0.000000 -12.243748 -17.602343 6.996625 -29.839482 -17.217306 0.534130 28.059940 -60.378268 -13.956216 0.000000 0.000000 0.000000 0.000000 0.000000 0.000000 11.884842 15.629438 6.138249 13.703414 24.114973 0.502390 -33.761755 41.260328 -10.965949 0.000000 0.000000 0.000000 0.000000 0.000000 0.000000 
-3.351681 66.638397 4.193249 -4.902178 5.672186 -5.345271 15.594852 0.020469 -4.587618 -6.466546 1.399222 28.603903 7.578940 14.914859 -5.959387 0.000000 0.000000 0.000000 -9.956385 0.379280 -11.598886 11.206921 -2.918910 27.843779 -12.504581 -28.243658 7.429283 0.000000 0.000000 0.000000 -0.194337 -0.194184 5.016984 -8.161104 3.183449 -12.984003 -2.171192 14.544588 19.074280 20.000862 -11.800764 -12.591822 0.000000 0.000000 0.000000 -9.757094 -15.745549 5.952341 -27.001159 -14.083772 -0.214144 20.671482 -55.169635 -8.604393 0.000000 0.000000 0.000000 0.000000 0.000000 0.000000 6.682626 17.072315 6.422972 9.648056 21.583748 -0.118820 -32.657132 32.181879 -7.904376 0.000000 0.000000 0.000000 0.000000 0.000000 0.000000 
-5.234712 66.487701 5.412936 -3.680150 4.050132 -5.342727 15.476538 -0.035438 -3.391722 -6.686836 1.450464 27.480404 8.225847 16.598866 -3.720056 0.000000 0.000000 0.000000 -9.429928 0.416028 -11.341717 11.562255 -3.090050 28.438576 -13.106572 -29.692702 5.727295 0.000000 0.000000 0.000000 -0.644935 -0.152017 4.483889 -8.643629 3.293891 -13.962465 -2.288410 14.325544 19.024986 17.697519 -11.102946 -9.836652 0.000000 0.000000 0.000000 -8.093611 -14.057848 5.122095 -23.531886 -9.764490 -0.971051 20.525593 -46.190284 -6.943252 0.000000 0.000000 0.000000 0.000000 0.000000 0.000000 1.355157 17.394599 6.139467 4.327030 20.808668 -0.682529 -29.537856 21.445711 -4.375872 0.000000 0.000000 0.000000 0.000000 0.000000 0.000000 
-7.595187 65.812798 7.059577 -2.255704 1.789394 -7.211282 15.602807 -0.164020 -0.487291 -6.296710 1.314621 27.737911 8.247216 16.803071 -1.890201 0.000000 0.000000 0.000000 -8.278810 0.408547 -7.893338 12.153037 -3.369529 29.233790 -14.360542 -33.527952 0.515743 0.000000 0.000000 0.000000 -0.983896 -0.132138 4.364671 -10.172900 3.708410 -15.371269 -2.473814 16.151440 18.690270 18.911851 -12.379228 -8.417282 0.000000 0.000000 0.000000 -5.831540 -12.569893 4.422958 -18.448910 -7.616373 -1.107650 17.952139 -36.021047 -4.431615 0.000000 0.000000 0.000000 0.000000 0.000000 0.000000 -5.111893 17.681223 5.734466 0.930807 20.237259 -0.999078 -25.184174 9.984781 -1.362011 0.000000 0.000000 0.000000 0.000000 0.000000 0.000000 
-10.582976 65.015900 9.009474 -1.746563 -0.305275 -7.566288 18.964962 -0.122210 -1.394763 -7.702325 1.967755 31.323643 8.511573 17.698168 3.599768 0.000000 0.000000 0.000000 -6.269030 0.429282 -6.305881 11.355315 -3.202720 31.193913 -14.421627 -34.692284 -2.552495 0.000000 0.000000 0.000000 -0.993683 -0.068504 2.392785 -10.809084 3.804712 -16.778267 -2.943363 18.701212 18.014374 20.165239 -13.735777 -7.007266 0.000000 0.000000 0.000000 -1.543100 -11.679348 3.991371 -12.371276 -4.242941 -1.063327 21.878236 -32.508275 -5.112119 0.000000 0.000000 0.000000 0.000000 0.000000 0.000000 -10.032975 18.122371 5.470617 -3.138969 17.083618 -1.124858 -18.891944 4.811071 -0.234662 0.000000 0.000000 0.000000 0.000000 0.000000 0.000000 
-13.973468 63.602791 10.973927 -0.984724 -2.515404 -10.584969 21.598601 0.047616 -3.126379 -7.745306 2.377540 40.945781 7.924275 16.808366 5.855495 0.000000 0.000000 0.000000 -3.944794 0.222610 -2.004920 11.944694 -3.677732 34.350971 -15.437856 -38.725654 -6.559801 0.000000 0.000000 0.000000 -2.075222 -0.055787 3.220460 -11.066448 3.792967 -17.921791 -3.663807 22.234849 16.701587 20.391127 -13.661823 -7.708447 0.000000 0.000000 0.000000 4.253106 -9.933577 3.369847 -5.411486 -3.267623 -0.580765 21.801418 -20.840716 -3.170988 0.000000 0.000000 0.000000 0.000000 0.000000 0.000000 -13.108628 19.090526 5.447648 -5.061773 13.413124 -0.885569 -14.120139 -0.104225 0.319809 0.000000 0.000000 0.000000 0.000000 0.000000 0.000000 
